PathFileType	4	(X/Y/Z)	/Users/itak/Documents/Research/Walk-IL/dataset/trc/00097_00006.trc
DataRate	CameraRate	NumFrames	NumMarkers	Units	OrigDataRate	OrigDataStartFrame	OrigNumFrames
100.000000	100.000000	4	53	mm	100.000000	325	520
Frame#	Time	RPSI			LPSI			L3			STRN			T10			C7			CLAV			RBAK			LBAK			LSHO			LUPA			LAEL			LAOL			LWTS			LWPS			LFRA			LIFD			LHPS			LHTS			RSHO			RUPA			RAEL			RAOL			RWTS			RWPS			RFRA			RIFD			RHTS			RHPS			RBHD			LFHD			RFHD			LBHD			LHIP			RHIP			RASI			LASI			LKNE			LTHI			LANK			LTIP			LTOE			LMT1			LMT5			LHEE			RKNE			RTHI			RANK			RTIP			RTOE			RMT1			RMT5			RHEE			
		X1	Y1	Z1	X2	Y2	Z2	X3	Y3	Z3	X4	Y4	Z4	X5	Y5	Z5	X6	Y6	Z6	X7	Y7	Z7	X8	Y8	Z8	X9	Y9	Z9	X10	Y10	Z10	X11	Y11	Z11	X12	Y12	Z12	X13	Y13	Z13	X14	Y14	Z14	X15	Y15	Z15	X16	Y16	Z16	X17	Y17	Z17	X18	Y18	Z18	X19	Y19	Z19	X20	Y20	Z20	X21	Y21	Z21	X22	Y22	Z22	X23	Y23	Z23	X24	Y24	Z24	X25	Y25	Z25	X26	Y26	Z26	X27	Y27	Z27	X28	Y28	Z28	X29	Y29	Z29	X30	Y30	Z30	X31	Y31	Z31	X32	Y32	Z32	X33	Y33	Z33	X34	Y34	Z34	X35	Y35	Z35	X36	Y36	Z36	X37	Y37	Z37	X38	Y38	Z38	X39	Y39	Z39	X40	Y40	Z40	X41	Y41	Z41	X42	Y42	Z42	X43	Y43	Z43	X44	Y44	Z44	X45	Y45	Z45	X46	Y46	Z46	X47	Y47	Z47	X48	Y48	Z48	X49	Y49	Z49	X50	Y50	Z50	X51	Y51	Z51	X52	Y52	Z52	X53	Y53	Z53	

326	3.25	-230.2895965576172	1018.4716796875	552.2318115234375	-85.30638885498047	1006.695007324219	457.8136596679688	-149.4298400878906	1072.62060546875	501.1744689941406	-41.4280891418457	1276.010009765625	728.3646240234375	-143.7872619628906	1202.430419921875	479.6046142578125	-123.6588821411133	1471.384033203125	528.52978515625	-56.47013854980469	1389.663696289062	697.9269409179688	-213.2869567871094	1329.828002929688	501.2925415039062	-37.04499816894531	1436.349487304688	469.4930419921875	67.70163726806641	1444.896728515625	540.3374633789062	137.0219268798828	1320.3232421875	499.0894470214844	185.3760986328125	1112.635009765625	513.9469604492188	82.54454040527344	1082.630859375	508.5430908203125	214.0927276611328	906.4329223632812	673.0475463867188	233.4768371582031	878.2572631835938	596.0355224609375	216.9046936035156	1011.042053222656	546.707763671875	220.8168640136719	734.8909301757812	736.2572631835938	257.9386291503906	809.7189331054688	644.6243286132812	240.8084716796875	834.4310302734375	709.2444458007812	-262.5660095214844	1432.295654296875	653.24267578125	-324.2296142578125	1361.903442382812	662.991943359375	-360.6980590820312	1101.947509765625	627.2023315429688	-263.4166870117188	1078.34619140625	619.0069580078125	-300.4643249511719	843.1971435546875	743.4111938476562	-366.5635375976562	833.8843994140625	686.7088012695312	-366.7115783691406	1022.626647949219	637.1685791015625	-287.100341796875	656.9056396484375	723.7826538085938	-300.4786376953125	735.5410766601562	759.1115112304688	-365.0552978515625	741.8396606445312	718.0773315429688	-172.8604278564453	1625.21728515625	561.7088012695312	-38.43052291870117	1706.533935546875	719.6203002929688	-162.135986328125	1685.096069335938	722.5661010742188	-38.15605545043945	1654.318115234375	548.3861083984375	46.14387130737305	945.34521484375	503.4127807617188	-263.4983520507812	949.875244140625	651.9651489257812	-182.1299438476562	971.208251953125	748.0335083007812	53.73825073242188	958.2989501953125	627.2291870117188	55.82071685791016	471.5048828125	597.3746337890625	64.85319519042969	619.707275390625	556.5582885742188	-151.2414703369141	163.6069488525391	266.1218566894531	-39.43505096435547	309.3800048828125	414.7301940917969	-78.40990447998047	36.85583877563477	387.6378479003906	-137.8010711669922	63.03804016113281	394.7989196777344	-89.71953582763672	78.10431671142578	295.1148681640625	-229.0958862304688	208.3215637207031	286.9009094238281	-127.8274688720703	516.1183471679688	762.9685668945312	-204.3415985107422	779.7440185546875	746.8325805664062	-92.64929962158203	38.83609390258789	702.0813598632812	-120.936653137207	387.9240112304688	757.7293090820312	35.00556182861328	49.80024719238281	880.3585815429688	42.26428604125977	48.57440567016602	810.3018188476562	-54.75711059570312	51.86367416381836	819.0598754882812	-59.35231018066406	38.89519882202148	638.4058227539062	
327	3.26	-227.2686614990234	1018.943725585938	557.5562133789062	-81.31295776367188	1006.181335449219	464.1432800292969	-146.2380218505859	1072.871948242188	507.5558471679688	-38.82645416259766	1276.3369140625	734.9711303710938	-140.7319641113281	1202.944213867188	486.0971069335938	-120.408317565918	1471.8828125	535.0068969726562	-53.60714721679688	1390.027709960938	704.491455078125	-210.2680206298828	1330.431640625	507.6373291015625	-33.72158813476562	1436.689819335938	476.18701171875	71.00501251220703	1444.961791992188	547.1572875976562	139.8554534912109	1320.13232421875	505.7099914550781	186.9443054199219	1111.981201171875	519.9061889648438	83.93220520019531	1082.762817382812	513.7277221679688	213.0892486572266	904.1973266601562	677.4381713867188	232.8948211669922	876.60205078125	600.2752685546875	217.5537109375	1009.9111328125	552.0556640625	217.6233673095703	731.8148803710938	738.8533935546875	256.2854309082031	807.318603515625	648.38232421875	238.8304138183594	831.4922485351562	713.1015625	-259.5799865722656	1432.885131835938	659.5413818359375	-321.3496398925781	1362.47119140625	669.3771362304688	-357.6935729980469	1102.108032226562	634.5210571289062	-259.7382507324219	1078.715698242188	626.3036499023438	-294.8611450195312	844.5731811523438	752.3834838867188	-361.1060485839844	834.095703125	695.9384155273438	-363.204345703125	1022.584594726562	644.9348754882812	-279.7444763183594	658.2689819335938	734.4535522460938	-293.9168701171875	737.3029174804688	769.2260131835938	-358.5184936523438	742.3508911132812	728.1795043945312	-169.8139495849609	1625.419189453125	567.9063720703125	-36.15093612670898	1707.16455078125	726.2390747070312	-159.8422546386719	1685.546630859375	728.7274169921875	-35.12775421142578	1654.714721679688	555.0584106445312	49.83986663818359	945.268798828125	511.4493408203125	-260.971435546875	950.3148803710938	657.1492919921875	-180.8067626953125	971.663330078125	753.8403930664062	56.30734252929688	958.6484375	635.1559448242188	66.08477783203125	472.7217712402344	612.653564453125	73.35646057128906	620.5607299804688	569.3899536132812	-142.734375	171.7848358154297	276.3299865722656	-30.18633842468262	313.2626342773438	427.9056091308594	-70.0579833984375	38.14719390869141	395.4684143066406	-129.7983856201172	67.40043640136719	402.7803039550781	-81.89865112304688	85.26367950439453	303.4307250976562	-220.4676666259766	216.2963256835938	297.7930603027344	-127.5315170288086	515.6742553710938	765.791259765625	-203.3302764892578	779.4776611328125	750.9432983398438	-92.52789306640625	38.90659332275391	702.1650390625	-120.4884567260742	387.5667114257812	759.7466430664062	35.35447311401367	48.35160827636719	880.9525756835938	42.36257553100586	47.94192123413086	810.716552734375	-54.5953254699707	51.55610275268555	819.3411865234375	-59.30083465576172	38.97277069091797	638.4713745117188	
328	3.27	-224.304931640625	1019.406433105469	562.6607055664062	-77.30137634277344	1005.730895996094	470.3830871582031	-142.9927062988281	1073.10205078125	513.8021240234375	-36.24651718139648	1276.62353515625	741.4246826171875	-137.7377319335938	1203.4765625	492.4421997070312	-117.1931457519531	1472.381958007812	541.3864135742188	-50.72912216186523	1390.361206054688	710.9200439453125	-207.3047790527344	1331.042358398438	513.8745727539062	-30.44493865966797	1436.998291015625	482.7528686523438	74.289306640625	1444.94970703125	553.8118896484375	142.6469573974609	1319.846069335938	512.1552734375	188.5258941650391	1111.266357421875	525.746337890625	85.35585021972656	1082.808959960938	518.7446899414062	212.0333251953125	901.8928833007812	681.62939453125	232.3207550048828	874.8818969726562	604.3235473632812	218.2210388183594	1008.72314453125	557.2738647460938	214.5016784667969	728.7603759765625	741.2946166992188	254.6695861816406	804.9107055664062	651.9651489257812	236.8851928710938	828.5829467773438	716.7733154296875	-256.6036376953125	1433.4443359375	665.7767333984375	-318.4763488769531	1362.996826171875	675.7357177734375	-354.7901000976562	1102.204833984375	641.9532470703125	-256.1203918457031	1078.99169921875	633.635498046875	-289.2373962402344	845.943603515625	761.432373046875	-355.7008972167969	834.3031005859375	705.3441162109375	-359.7806091308594	1022.507568359375	652.84765625	-272.4090270996094	659.6774291992188	745.340087890625	-287.251953125	739.4141235351562	779.5469970703125	-352.0155944824219	742.9007568359375	738.5122680664062	-166.7156524658203	1625.61083984375	574.0219116210938	-33.84847259521484	1707.7685546875	732.804931640625	-157.5171813964844	1685.969116210938	734.8181762695312	-32.05428314208984	1655.120727539062	561.6727294921875	53.54465103149414	945.2827758789062	519.4359130859375	-258.41162109375	950.7125244140625	662.16748046875	-179.6177368164062	972.093994140625	759.4905395507812	58.83979415893555	959.0283813476562	643.0715942382812	76.00914001464844	474.3254089355469	628.0387573242188	81.67630004882812	621.7142333984375	582.1815795898438	-133.7849578857422	179.1382904052734	287.5045776367188	-20.91131591796875	317.0232238769531	441.511962890625	-60.50612640380859	40.43209075927734	404.8755493164062	-120.7140502929688	71.90735626220703	412.1826171875	-72.94519805908203	92.35100555419922	313.203125	-211.6715393066406	223.0606231689453	309.4230651855469	-127.2989349365234	515.275634765625	768.5396728515625	-202.3462677001953	779.212158203125	754.9634399414062	-92.43403625488281	38.96369934082031	702.2530517578125	-120.0460052490234	387.2495422363281	761.72607421875	35.63747024536133	47.04220581054688	881.470947265625	42.40419006347656	47.35369491577148	811.0905151367188	-54.48595428466797	51.26693725585938	819.5995483398438	-59.26430511474609	39.04903793334961	638.5437622070312	
329	3.28	-221.3564910888672	1019.866516113281	567.5952758789062	-73.28505706787109	1005.409362792969	476.5705871582031	-139.6754608154297	1073.345458984375	519.9041748046875	-33.70019149780273	1276.907348632812	747.7423706054688	-134.7982025146484	1204.053588867188	498.6342468261719	-114.011474609375	1472.896484375	547.6680908203125	-47.85080337524414	1390.698974609375	717.21923828125	-204.386962890625	1331.678955078125	519.99560546875	-27.21183776855469	1437.305419921875	489.1970825195312	77.55136108398438	1444.913330078125	560.3158569335938	145.4057006835938	1319.529174804688	518.4466552734375	190.0980072021484	1110.545166015625	531.4790649414062	86.79023742675781	1082.838500976562	523.6346435546875	210.9273529052734	899.5587768554688	685.6053466796875	231.7340087890625	873.1453247070312	608.1647338867188	218.8788604736328	1007.528442382812	562.3563232421875	211.4638214111328	725.7562255859375	743.5569458007812	253.096923828125	802.5393676757812	655.3411865234375	234.9783477783203	825.7337036132812	720.2333984375	-253.6445770263672	1434.001098632812	671.9320068359375	-315.6121520996094	1363.50537109375	682.0494384765625	-351.9573669433594	1102.264526367188	649.4971923828125	-252.6411285400391	1079.216430664062	640.9492797851562	-283.6158752441406	847.31689453125	770.525390625	-350.3465881347656	834.544921875	714.9138793945312	-356.4118041992188	1022.429748535156	660.9017944335938	-265.1514892578125	661.1483764648438	756.3865356445312	-280.5147705078125	741.7998046875	790.003662109375	-345.5784606933594	743.5291137695312	749.0419311523438	-163.5705718994141	1625.818725585938	580.0576171875	-31.5196590423584	1708.357666015625	739.3179931640625	-155.1568450927734	1686.38232421875	740.8386840820312	-28.93643760681152	1655.553344726562	568.2300415039062	57.22814178466797	945.4407958984375	527.3718872070312	-255.8612365722656	951.0699462890625	667.0196533203125	-178.5489807128906	972.5130004882812	765.001953125	61.30580139160156	959.4825439453125	650.9718627929688	85.55942535400391	476.3349304199219	643.5105590820312	89.78053283691406	623.1896362304688	594.9591064453125	-124.3818893432617	185.4948425292969	299.5994567871094	-11.58227252960205	320.6180114746094	455.5076293945312	-49.90806198120117	43.57061767578125	415.8411254882812	-110.6654586791992	76.33995819091797	422.9883422851562	-62.92360305786133	99.07524108886719	324.414794921875	-202.6443328857422	228.5181274414062	321.7357788085938	-127.0682067871094	514.9296875	771.1917114257812	-201.3570404052734	778.971923828125	758.9507446289062	-92.36064147949219	39.01448059082031	702.3419799804688	-119.5669250488281	386.9748840332031	763.6570434570312	35.86667633056641	45.89906692504883	881.906982421875	42.40950393676758	46.81705093383789	811.4100341796875	-54.40098190307617	51.0041618347168	819.8342895507812	-59.2330207824707	39.12969207763672	638.6143188476562	
